<?xml version="1.0" standalone="no"?>
<!DOCTYPE svg PUBLIC "-//W3C//DTD SVG 20010904//EN"
 "http://www.w3.org/TR/2001/REC-SVG-20010904/DTD/svg10.dtd">
<svg version="1.0" xmlns="http://www.w3.org/2000/svg"
 width="512.000000pt" height="512.000000pt" viewBox="0 0 512.000000 512.000000"
 preserveAspectRatio="xMidYMid meet">
<metadata>
Created by potrace 1.11, written by Peter Selinger 2001-2013
</metadata>
<g transform="translate(0.000000,512.000000) scale(0.100000,-0.100000)"
fill="#000000" stroke="none">
<path d="M1015 4858 c5 -14 154 -582 160 -610 2 -9 15 -61 30 -115 15 -54 28
-105 30 -113 1 -8 19 -76 38 -150 80 -303 132 -504 172 -660 24 -91 64 -245
90 -343 25 -99 48 -188 50 -199 3 -12 9 -35 14 -52 6 -17 29 -103 51 -191 23
-88 51 -194 62 -235 11 -41 21 -82 23 -90 2 -8 22 -87 45 -175 23 -88 57 -221
76 -295 66 -255 59 -240 107 -241 23 0 49 -2 58 -4 9 -1 63 -6 120 -10 57 -4
111 -8 119 -10 8 -2 60 -6 115 -9 55 -4 120 -9 145 -11 25 -2 79 -7 120 -10
41 -3 95 -8 120 -10 25 -3 81 -7 125 -10 44 -3 98 -8 120 -9 22 -2 83 -7 135
-11 52 -3 106 -8 120 -10 14 -2 68 -7 120 -10 52 -3 115 -8 140 -10 25 -2 81
-7 125 -10 44 -4 103 -9 130 -11 28 -2 82 -6 120 -9 39 -3 96 -7 128 -10 117
-10 174 -15 247 -20 41 -3 95 -8 120 -10 25 -2 81 -7 125 -10 44 -3 103 -8
130 -10 28 -3 81 -7 119 -10 67 -5 68 -5 62 17 -15 58 -78 295 -81 308 -2 8
-15 60 -29 115 -15 55 -28 107 -30 115 -3 8 -23 87 -46 175 -23 88 -55 212
-71 275 -34 131 -91 346 -114 435 -9 33 -18 67 -20 75 -1 8 -35 139 -75 290
-39 151 -85 327 -102 390 -27 104 -66 255 -260 995 -33 127 -62 242 -65 258
-4 22 -11 27 -37 28 -17 0 -42 2 -56 4 -14 1 -72 6 -130 9 -58 4 -112 9 -120
11 -8 2 -62 6 -120 10 -58 4 -118 8 -135 10 -16 2 -70 7 -120 10 -49 3 -106 8
-125 10 -19 2 -78 7 -130 10 -52 4 -108 9 -125 10 -16 1 -68 6 -115 9 -47 4
-103 9 -125 11 -22 3 -78 7 -125 10 -47 4 -101 8 -120 10 -19 2 -78 6 -130 10
-52 4 -108 8 -125 10 -16 2 -66 7 -110 10 -44 2 -105 7 -135 10 -30 2 -86 7
-125 10 -64 5 -102 8 -240 20 -27 2 -88 7 -135 10 -47 4 -101 8 -120 10 -150
15 -220 16 -215 3z m500 -232 c17 -2 71 -6 120 -10 50 -4 106 -9 125 -11 19
-3 67 -7 105 -10 39 -3 90 -8 115 -10 25 -3 81 -7 125 -10 44 -4 91 -8 105
-10 14 -2 63 -7 110 -10 47 -3 101 -7 120 -10 19 -2 73 -7 120 -11 47 -4 99
-8 115 -10 17 -1 66 -5 110 -9 44 -3 96 -8 115 -10 19 -2 73 -7 120 -10 47 -3
101 -8 120 -10 19 -3 64 -7 100 -10 104 -8 192 -16 235 -20 22 -2 76 -7 120
-11 44 -3 89 -7 100 -9 11 -1 30 -3 41 -4 18 -1 25 -12 38 -63 30 -116 95
-362 131 -498 20 -74 40 -151 45 -170 5 -19 24 -93 43 -165 32 -119 59 -220
145 -545 17 -63 39 -149 51 -190 11 -41 32 -120 46 -175 15 -55 56 -210 92
-344 36 -135 66 -252 68 -260 3 -14 52 -198 130 -491 14 -52 28 -103 31 -113
5 -16 -1 -17 -73 -12 -43 3 -98 7 -123 10 -25 2 -83 7 -130 10 -47 4 -105 8
-130 10 -62 6 -162 14 -240 20 -36 3 -92 7 -125 10 -33 3 -89 7 -125 10 -36 2
-90 7 -120 10 -69 6 -164 13 -255 20 -38 3 -92 7 -120 10 -27 2 -86 7 -130 10
-44 3 -100 7 -125 10 -25 3 -79 7 -120 10 -41 3 -97 8 -125 10 -27 2 -86 7
-130 10 -44 3 -100 7 -125 10 -103 10 -197 18 -232 18 -44 0 -37 -14 -93 207
-20 80 -49 195 -65 255 -16 61 -47 182 -70 270 -79 308 -111 431 -142 544 -16
63 -31 121 -33 130 -2 9 -22 88 -45 176 -23 88 -43 167 -45 175 -2 8 -15 58
-28 110 -14 52 -38 140 -52 195 -15 55 -28 108 -30 117 -2 9 -20 79 -40 155
-44 168 -164 635 -175 681 l-8 34 91 -7 c51 -4 106 -8 122 -9z"/>
<path d="M746 4810 c-95 -56 -156 -109 -232 -204 -111 -139 -178 -282 -191
-407 -5 -59 16 -177 42 -228 l12 -24 7 29 c11 45 108 233 156 304 64 94 184
214 269 271 42 27 81 53 87 58 17 14 -46 241 -66 241 -8 0 -46 -18 -84 -40z"/>
<path d="M925 4428 c-33 -19 -106 -80 -157 -133 -186 -192 -336 -598 -285
-768 9 -29 41 -144 72 -257 31 -113 67 -243 80 -290 31 -108 303 -1097 402
-1460 41 -151 78 -281 82 -288 5 -9 20 8 46 50 115 191 245 315 441 423 l51
28 -49 186 c-26 102 -50 195 -52 206 -3 11 -22 88 -44 170 -53 196 -103 386
-107 405 -4 19 -90 350 -115 445 -46 173 -203 776 -285 1095 -26 102 -50 188
-54 192 -3 4 -15 2 -26 -4z"/>
<path d="M1605 1513 c-162 -106 -307 -292 -373 -478 -34 -96 -34 -96 24 -309
30 -110 57 -209 60 -218 3 -10 13 -18 22 -18 15 0 17 14 18 108 1 65 8 131 18
170 15 58 68 180 98 227 69 109 161 209 250 275 32 24 46 40 42 52 -3 9 -7 25
-9 35 -23 107 -53 198 -66 200 -8 1 -45 -19 -84 -44z"/>
<path d="M1897 1189 c-87 -52 -192 -156 -251 -246 -41 -64 -99 -189 -113 -247
-7 -28 -12 -196 -7 -211 3 -6 24 -12 49 -14 24 -1 52 -3 62 -5 10 -2 65 -7
123 -11 58 -3 116 -8 130 -10 14 -2 63 -7 110 -10 47 -3 101 -8 120 -10 19 -2
76 -7 125 -10 50 -3 106 -8 125 -10 19 -3 67 -7 105 -10 39 -3 93 -7 120 -10
28 -2 86 -7 130 -10 44 -3 96 -8 115 -10 19 -3 71 -7 115 -10 44 -3 96 -7 115
-10 37 -5 148 -14 227 -20 27 -1 80 -6 118 -9 101 -9 159 -15 250 -22 44 -3
96 -8 115 -10 19 -2 73 -6 120 -9 47 -3 101 -8 120 -10 19 -3 71 -7 115 -10
85 -7 127 -10 244 -21 42 -4 72 -3 70 2 -2 5 -16 32 -31 59 -29 57 -44 107
-52 179 -3 27 -7 51 -9 53 -2 1 -45 20 -97 42 l-93 39 44 8 c24 4 51 8 59 9
29 4 115 17 135 20 153 25 178 29 204 34 2 1 -29 32 -69 69 l-72 68 52 47 c29
26 83 64 119 84 78 43 76 42 69 48 -8 8 -41 13 -143 20 -49 3 -112 8 -140 10
-151 12 -205 17 -250 20 -87 7 -209 17 -250 20 -22 2 -76 6 -120 10 -44 3
-100 8 -125 10 -90 8 -177 15 -250 20 -41 3 -100 7 -130 10 -120 10 -197 16
-240 19 -114 9 -228 18 -260 21 -19 2 -80 7 -135 10 -55 4 -111 8 -125 11 -14
2 -68 6 -120 9 -52 3 -111 8 -130 10 -60 7 -152 15 -233 20 -43 3 -82 7 -86 9
-4 3 -37 -13 -74 -35z"/>
</g>
</svg>
